# xmcd
#
# Track frame offsets:
#	150
#	15000
#	33150
#	48900
#
# Disc length: 862 seconds
#
# Revision: 0
# Processed by: cddbd v1.5PL3 Copyright (c) Steve Scherf et al.
# Submitted via: audiograbber 1.83.01
#
DISCID=1b035c04
DTITLE=Adam Gregory - Introducing...Adam Gregory
DYEAR=2000
DGENRE=Country
TTITLE0=Horseshoes
TTITLE1=Big Star
TTITLE2=No Vacancy
TTITLE3=Facts of Life
EXTD=Taken from the forthcoming debut album "The Way I'm made"
EXTT0=
EXTT1=
EXTT2=
EXTT3=
PLAYORDER=
